PathFileType	4	(X/Y/Z)	/Users/itak/Documents/Research/Walk-IL/dataset/trc/00124_00007.trc
DataRate	CameraRate	NumFrames	NumMarkers	Units	OrigDataRate	OrigDataStartFrame	OrigNumFrames
100.000000	100.000000	4	53	mm	100.000000	462	740
Frame#	Time	RPSI			LPSI			L3			STRN			T10			C7			CLAV			RBAK			LBAK			LSHO			LUPA			LAEL			LAOL			LWTS			LWPS			LFRA			LIFD			LHPS			LHTS			RSHO			RUPA			RAEL			RAOL			RWTS			RWPS			RFRA			RIFD			RHTS			RHPS			RBHD			LFHD			RFHD			LBHD			LHIP			RHIP			RASI			LASI			LKNE			LTHI			LANK			LTIP			LTOE			LMT1			LMT5			LHEE			RKNE			RTHI			RANK			RTIP			RTOE			RMT1			RMT5			RHEE			
		X1	Y1	Z1	X2	Y2	Z2	X3	Y3	Z3	X4	Y4	Z4	X5	Y5	Z5	X6	Y6	Z6	X7	Y7	Z7	X8	Y8	Z8	X9	Y9	Z9	X10	Y10	Z10	X11	Y11	Z11	X12	Y12	Z12	X13	Y13	Z13	X14	Y14	Z14	X15	Y15	Z15	X16	Y16	Z16	X17	Y17	Z17	X18	Y18	Z18	X19	Y19	Z19	X20	Y20	Z20	X21	Y21	Z21	X22	Y22	Z22	X23	Y23	Z23	X24	Y24	Z24	X25	Y25	Z25	X26	Y26	Z26	X27	Y27	Z27	X28	Y28	Z28	X29	Y29	Z29	X30	Y30	Z30	X31	Y31	Z31	X32	Y32	Z32	X33	Y33	Z33	X34	Y34	Z34	X35	Y35	Z35	X36	Y36	Z36	X37	Y37	Z37	X38	Y38	Z38	X39	Y39	Z39	X40	Y40	Z40	X41	Y41	Z41	X42	Y42	Z42	X43	Y43	Z43	X44	Y44	Z44	X45	Y45	Z45	X46	Y46	Z46	X47	Y47	Z47	X48	Y48	Z48	X49	Y49	Z49	X50	Y50	Z50	X51	Y51	Z51	X52	Y52	Z52	X53	Y53	Z53	

463	4.62	-597.5975341796875	1118.161010742188	-270.8714599609375	-466.0287780761719	1111.657470703125	-225.9035034179688	-529.75	1150.679565429688	-252.8364715576172	-605.9705810546875	1352.042236328125	-39.55387878417969	-515.2044067382812	1303.389892578125	-277.1902160644531	-504.3605346679688	1596.6005859375	-233.4464569091797	-584.5164184570312	1487.038940429688	-67.70903778076172	-573.3916015625	1417.01416015625	-321.1493530273438	-409.3203125	1572.391235351562	-201.4828186035156	-379.3295593261719	1553.647338867188	-95.61878967285156	-307.8601684570312	1420.918579101562	-94.04414367675781	-295.0717468261719	1201.024780273438	-85.31020355224609	-322.2345581054688	1194.175537109375	-169.0006561279297	-371.854248046875	937.2982177734375	-29.26718330383301	-316.1618347167969	917.9430541992188	-95.37953186035156	-296.7651672363281	1085.143432617188	-76.95922088623047	-393.709716796875	744.396484375	-47.26511764526367	-326.6427001953125	840.3539428710938	-76.33296966552734	-367.5057678222656	845.3753662109375	-20.66019439697266	-695.7199096679688	1586.070190429688	-248.2845764160156	-751.8712158203125	1517.05224609375	-290.162841796875	-795.8338012695312	1228.3134765625	-323.1943054199219	-703.7296142578125	1217.556640625	-295.9856262207031	-860.572509765625	983.4954223632812	-197.7848968505859	-861.903564453125	971.0218505859375	-280.0265808105469	-825.86328125	1156.992797851562	-310.7765502929688	-869.3603515625	788.7259521484375	-178.1319122314453	-887.745849609375	876.0684814453125	-178.529052734375	-889.2203979492188	871.9611206054688	-252.70849609375	-590.88720703125	1782.59033203125	-193.9749908447266	-470.0464172363281	1804.509643554688	-10.0345630645752	-593.5999145507812	1837.811889648438	-22.93962287902832	-459.6450805664062	1753.691040039062	-186.5097351074219	-414.415771484375	1013.044372558594	-91.28615570068359	-763.3134765625	1041.388549804688	-197.6308746337891	-738.6430053710938	1107.513305664062	-100.8342361450195	-490.4081726074219	1086.51318359375	-10.27163600921631	-552.419921875	521.2316284179688	32.72016906738281	-493.6589965820312	662.9142456054688	-11.10201835632324	-369.970947265625	218.6950225830078	-367.1111755371094	-433.0479431152344	382.8597412109375	-171.2361755371094	-488.73291015625	25.85627937316895	-330.7643127441406	-493.7980346679688	102.8669509887695	-363.7200317382812	-386.9957275390625	100.9369277954102	-329.8000793457031	-406.1091613769531	290.6027221679688	-411.2374572753906	-790.1514892578125	551.8886108398438	-124.2262954711914	-794.041259765625	834.1533203125	-152.0599670410156	-776.4064331054688	23.241455078125	-187.751708984375	-804.7374877929688	415.1222839355469	-143.6845550537109	-794.0514526367188	57.10553359985352	48.35220336914062	-735.327880859375	53.01572799682617	4.365554809570312	-835.6576538085938	34.63368606567383	-65.32154846191406	-712.6298217773438	30.26577186584473	-227.5447387695312	
464	4.63	-602.2882080078125	1118.651000976562	-264.4507141113281	-470.2294616699219	1112.572265625	-220.9454345703125	-534.6227416992188	1151.516235351562	-247.5725555419922	-608.5906982421875	1352.78515625	-32.70955657958984	-521.5596923828125	1304.30078125	-271.5674133300781	-510.4214477539062	1597.556030273438	-227.76611328125	-587.4527587890625	1487.845825195312	-60.82038497924805	-580.6771850585938	1418.186645507812	-314.4891357421875	-414.931396484375	1573.531982421875	-197.3600311279297	-382.7028198242188	1554.800048828125	-92.33477783203125	-310.6788330078125	1422.317016601562	-93.01811981201172	-296.3441467285156	1202.61767578125	-86.24929046630859	-326.208984375	1195.826049804688	-169.1494293212891	-371.0989379882812	939.2078247070312	-27.0781421661377	-317.9842224121094	919.42529296875	-95.28300476074219	-297.4814758300781	1086.855346679688	-77.97826385498047	-393.5411682128906	746.35205078125	-42.34791946411133	-327.7778930664062	841.9588012695312	-75.26515197753906	-366.3940734863281	847.48193359375	-17.90847015380859	-701.9166259765625	1587.136840820312	-239.2249755859375	-759.0300903320312	1518.104614257812	-279.8825988769531	-804.8868408203125	1229.427001953125	-310.7868041992188	-712.16064453125	1218.499267578125	-286.0940551757812	-866.7913208007812	984.7252807617188	-183.6120147705078	-870.5409545898438	972.4359741210938	-265.8631591796875	-834.8032836914062	1158.233520507812	-297.4775695800781	-875.492431640625	789.8892211914062	-164.2969512939453	-893.6513671875	877.2512817382812	-163.84521484375	-897.3318481445312	873.4202880859375	-237.9867553710938	-596.3672485351562	1783.571533203125	-185.9313507080078	-472.4752197265625	1804.76513671875	-3.913970947265625	-596.2559814453125	1838.107055664062	-14.58212375640869	-464.9773254394531	1754.6689453125	-180.7597503662109	-417.4533081054688	1014.088989257812	-85.96879577636719	-767.050537109375	1041.733764648438	-189.9609375	-742.1600952148438	1108.109375	-93.19892883300781	-492.9899291992188	1087.703491210938	-4.97948694229126	-557.6056518554688	525.2009887695312	47.36046981811523	-498.0118103027344	665.626953125	0.2995835542678833	-383.7975769042969	219.3147430419922	-352.7379455566406	-443.1154174804688	385.2584838867188	-158.3090515136719	-500.0827026367188	27.49858856201172	-305.7765808105469	-506.3965759277344	102.6158676147461	-342.3481140136719	-399.1349487304688	103.7227172851562	-309.10009765625	-420.898681640625	288.7209167480469	-399.7528076171875	-791.7420043945312	551.4308471679688	-120.6631851196289	-797.1590576171875	834.543701171875	-144.7856140136719	-776.3688354492188	23.50663948059082	-187.5883636474609	-805.6790771484375	414.7247924804688	-141.0275115966797	-794.3958129882812	56.11631393432617	48.66933059692383	-735.4453125	52.30884170532227	4.792617321014404	-835.7627563476562	34.60137176513672	-65.25714111328125	-712.616943359375	30.49659538269043	-227.3970184326172	
465	4.64	-606.9592895507812	1119.185302734375	-258.0193176269531	-474.5507507324219	1113.347900390625	-215.9286956787109	-539.446044921875	1152.3251953125	-242.2709197998047	-611.161376953125	1353.476196289062	-25.88187408447266	-527.7421264648438	1305.154663085938	-265.9446411132812	-516.320556640625	1598.403686523438	-222.0191497802734	-590.3125610351562	1488.599487304688	-53.98619079589844	-587.72705078125	1419.2431640625	-307.7843017578125	-420.3979797363281	1574.55322265625	-193.1861572265625	-386.0394287109375	1555.87109375	-88.94857025146484	-313.565185546875	1423.642333984375	-91.82393646240234	-297.7176818847656	1204.159912109375	-87.063232421875	-330.159423828125	1197.407836914062	-169.1558990478516	-370.4923400878906	941.095458984375	-24.86735153198242	-319.9013977050781	920.8458862304688	-94.97537231445312	-298.3671875	1088.471069335938	-78.84873962402344	-393.6005249023438	748.31396484375	-37.48992538452148	-329.07421875	843.5020751953125	-74.04656219482422	-365.4882202148438	849.555419921875	-15.16653728485107	-707.82421875	1588.151245117188	-230.2924346923828	-765.8464965820312	1519.102783203125	-269.75537109375	-813.4998168945312	1230.465087890625	-298.3950500488281	-720.3483276367188	1219.3037109375	-275.9913635253906	-872.83642578125	986.0162353515625	-169.4222412109375	-878.85009765625	973.837158203125	-251.6321563720703	-843.327880859375	1159.422485351562	-284.2134094238281	-881.6837768554688	791.141357421875	-150.2933654785156	-899.5390625	878.5459594726562	-149.1350860595703	-905.2460327148438	874.9170532226562	-223.1824493408203	-601.6704711914062	1784.56201171875	-177.8585052490234	-474.786376953125	1804.92529296875	2.218163251876831	-598.7798461914062	1838.247314453125	-6.212238788604736	-470.16259765625	1755.730346679688	-174.9918212890625	-420.315185546875	1015.128295898438	-80.64566040039062	-770.7295532226562	1042.058715820312	-182.0802001953125	-745.5648193359375	1108.5615234375	-85.48397827148438	-495.4552917480469	1088.837890625	0.2779932618141174	-562.1666870117188	529.26318359375	61.58351516723633	-501.8326416015625	668.4007568359375	11.34434700012207	-397.4870300292969	218.4578857421875	-337.5609741210938	-452.84326171875	387.1313781738281	-145.355712890625	-512.3094482421875	29.12747383117676	-279.1769714355469	-519.3837890625	101.9550247192383	-319.7328491210938	-411.7995300292969	105.5730438232422	-287.2409973144531	-435.1988220214844	285.2615356445312	-387.6966857910156	-793.1307983398438	550.9441528320312	-117.0100250244141	-800.0050048828125	834.7022094726562	-137.5938415527344	-776.2963256835938	23.81451034545898	-187.396728515625	-806.4900512695312	414.3067016601562	-138.2365112304688	-794.6372680664062	55.04742431640625	49.02725601196289	-735.5037231445312	51.47291564941406	5.234396934509277	-835.8548583984375	34.5831184387207	-65.19380187988281	-712.5833740234375	30.74052238464355	-227.2371978759766	
466	4.65	-611.6292114257812	1119.776489257812	-251.5542449951172	-478.9677429199219	1114.015380859375	-210.8603210449219	-544.2179565429688	1153.109741210938	-236.8954010009766	-613.6775512695312	1354.108276367188	-19.05558204650879	-533.7457885742188	1305.963623046875	-260.3177185058594	-522.0545654296875	1599.169677734375	-216.1939086914062	-593.0997924804688	1489.290893554688	-47.18562698364258	-594.5570678710938	1420.202392578125	-301.0333557128906	-425.7090759277344	1575.468383789062	-188.9798431396484	-389.3434753417969	1556.8427734375	-85.45415496826172	-316.5228881835938	1424.875366210938	-90.44252014160156	-299.2146606445312	1205.627807617188	-87.67862701416016	-334.06640625	1198.902587890625	-168.9588928222656	-370.0755615234375	942.9121704101562	-22.63057708740234	-321.8836364746094	922.1836547851562	-94.41645812988281	-299.4393005371094	1089.964477539062	-79.49697875976562	-393.92822265625	750.2261962890625	-32.79593276977539	-330.5083923339844	844.95654296875	-72.66404724121094	-364.8186645507812	851.5371704101562	-12.44724941253662	-713.4702758789062	1589.106689453125	-221.4609069824219	-772.3394165039062	1520.046875	-259.7697143554688	-821.6515502929688	1231.419189453125	-286.07373046875	-728.193115234375	1220.001098632812	-265.7523803710938	-878.724853515625	987.38623046875	-155.2412567138672	-886.7996826171875	975.2139282226562	-237.3611602783203	-851.4108276367188	1160.546264648438	-271.037353515625	-887.9376220703125	792.5139770507812	-136.0552825927734	-905.406005859375	879.980712890625	-134.3766021728516	-912.9320678710938	876.445556640625	-208.2894592285156	-606.7875366210938	1785.546264648438	-169.7651824951172	-476.9781188964844	1805.008911132812	8.354475021362305	-601.16552734375	1838.25634765625	2.155132293701172	-475.2002563476562	1756.853149414062	-169.1993103027344	-423.0075073242188	1016.176818847656	-75.30473327636719	-774.4398193359375	1042.386596679688	-173.8715972900391	-748.849609375	1108.874755859375	-77.66507720947266	-497.8036193847656	1089.919189453125	5.507311344146729	-566.1255493164062	533.3914184570312	75.37918853759766	-505.1613464355469	671.2259521484375	22.0413703918457	-411.008544921875	216.2119750976562	-321.5826416015625	-462.1777954101562	388.4071044921875	-132.3045654296875	-525.1069946289062	30.64092636108398	-251.3127746582031	-532.6174926757812	100.8681182861328	-296.0470886230469	-424.7771301269531	106.5026473999023	-264.4942626953125	-449.0947265625	280.3537902832031	-374.8804931640625	-794.3289794921875	550.42333984375	-113.265625	-802.5363159179688	834.572509765625	-130.5971984863281	-776.1788330078125	24.15348052978516	-187.1765441894531	-807.195556640625	413.8726806640625	-135.3180541992188	-794.7648315429688	53.93085861206055	49.41773986816406	-735.504150390625	50.53132629394531	5.673469066619873	-835.9327392578125	34.57855606079102	-65.13216400146484	-712.5305786132812	30.99462509155273	-227.0745849609375	
